<svg width="23" height="22" viewBox="0 0 23 22" fill="none" xmlns="http://www.w3.org/2000/svg">
<path id="Vector" opacity="0.75" d="M20.9194 1.58928C20.7343 1.40207 20.5138 1.25355 20.2708 1.15238C20.0278 1.05122 19.767 0.999418 19.5038 1H14.016C13.656 1.00068 13.3108 1.14328 13.0553 1.39687L2.08458 12.3654C1.71024 12.7405 1.5 13.2488 1.5 13.7787C1.5 14.3087 1.71024 14.817 2.08458 15.1921L7.30767 20.4152C7.68288 20.7897 8.19135 21 8.72147 21C9.2516 21 9.76007 20.7897 10.1353 20.4152L21.1015 9.45114C21.3556 9.19604 21.4987 8.85095 21.4997 8.49089V2.99996C21.5014 2.73809 21.4509 2.47851 21.3513 2.23633C21.2516 1.99414 21.1048 1.77419 20.9194 1.58928V1.58928ZM17.2141 6.71415C16.9316 6.71415 16.6554 6.63037 16.4205 6.4734C16.1855 6.31643 16.0025 6.09332 15.8943 5.83229C15.7862 5.57126 15.7579 5.28403 15.813 5.00692C15.8682 4.72981 16.0042 4.47527 16.204 4.27549C16.4038 4.0757 16.6583 3.93965 16.9354 3.88453C17.2125 3.82941 17.4998 3.8577 17.7608 3.96582C18.0218 4.07394 18.2449 4.25704 18.4019 4.49196C18.5589 4.72688 18.6427 5.00308 18.6427 5.28561C18.6427 5.66449 18.4922 6.02784 18.2243 6.29574C17.9563 6.56364 17.593 6.71415 17.2141 6.71415Z" stroke="#940707" stroke-width="1.5"/>
</svg>
